<svg xmlns="http://www.w3.org/2000/svg" x="0px" y="0px"
width="96" height="96"
viewBox="0 0 172 172"
style=" fill:#000000;"><defs><linearGradient x1="38.06035" y1="-35.83822" x2="139.99522" y2="66.09665" gradientUnits="userSpaceOnUse" id="color-1_xCLiCEaCIH7B_gr1"><stop offset="0" stop-color="#4c4c4c"></stop><stop offset="1" stop-color="#343434"></stop></linearGradient><linearGradient x1="126.91928" y1="-37.02881" x2="39.91192" y2="49.97855" gradientUnits="userSpaceOnUse" id="color-2_xCLiCEaCIH7B_gr2"><stop offset="0" stop-color="#4c4c4c"></stop><stop offset="1" stop-color="#343434"></stop></linearGradient><linearGradient x1="12.10143" y1="98.31643" x2="159.89857" y2="98.31643" gradientUnits="userSpaceOnUse" id="color-3_xCLiCEaCIH7B_gr3"><stop offset="0" stop-color="#00bffe"></stop><stop offset="1" stop-color="#1d55c4"></stop></linearGradient><linearGradient x1="-21.93297" y1="77.95327" x2="124.6859" y2="224.57214" gradientUnits="userSpaceOnUse" id="color-4_xCLiCEaCIH7B_gr4"><stop offset="0" stop-color="#84e1fe"></stop><stop offset="1" stop-color="#167cf7"></stop></linearGradient><linearGradient x1="-8.81597" y1="64.83627" x2="137.8029" y2="211.45514" gradientUnits="userSpaceOnUse" id="color-5_xCLiCEaCIH7B_gr5"><stop offset="0" stop-color="#84e1fe"></stop><stop offset="1" stop-color="#167cf7"></stop></linearGradient><linearGradient x1="7.92205" y1="48.09824" x2="154.54503" y2="194.71301" gradientUnits="userSpaceOnUse" id="color-6_xCLiCEaCIH7B_gr6"><stop offset="0" stop-color="#84e1fe"></stop><stop offset="1" stop-color="#167cf7"></stop></linearGradient><linearGradient x1="35.78182" y1="20.23848" x2="182.39658" y2="166.86146" gradientUnits="userSpaceOnUse" id="color-7_xCLiCEaCIH7B_gr7"><stop offset="0" stop-color="#84e1fe"></stop><stop offset="1" stop-color="#167cf7"></stop></linearGradient><linearGradient x1="21.85193" y1="34.16836" x2="168.47081" y2="180.78723" gradientUnits="userSpaceOnUse" id="color-8_xCLiCEaCIH7B_gr8"><stop offset="0" stop-color="#84e1fe"></stop><stop offset="1" stop-color="#167cf7"></stop></linearGradient><linearGradient x1="-12.61354" y1="68.63384" x2="134.00533" y2="215.25271" gradientUnits="userSpaceOnUse" id="color-9_xCLiCEaCIH7B_gr9"><stop offset="0" stop-color="#84e1fe"></stop><stop offset="1" stop-color="#167cf7"></stop></linearGradient><linearGradient x1="-21.93297" y1="77.95327" x2="124.6859" y2="224.57214" gradientUnits="userSpaceOnUse" id="color-10_xCLiCEaCIH7B_gr10"><stop offset="0" stop-color="#84e1fe"></stop><stop offset="1" stop-color="#167cf7"></stop></linearGradient><linearGradient x1="52.51984" y1="3.50046" x2="199.13871" y2="150.11933" gradientUnits="userSpaceOnUse" id="color-11_xCLiCEaCIH7B_gr11"><stop offset="0" stop-color="#84e1fe"></stop><stop offset="1" stop-color="#167cf7"></stop></linearGradient><linearGradient x1="39.63686" y1="16.38344" x2="186.25573" y2="162.99821" gradientUnits="userSpaceOnUse" id="color-12_xCLiCEaCIH7B_gr12"><stop offset="0" stop-color="#84e1fe"></stop><stop offset="1" stop-color="#167cf7"></stop></linearGradient><linearGradient x1="21.85193" y1="34.16836" x2="168.47081" y2="180.78723" gradientUnits="userSpaceOnUse" id="color-13_xCLiCEaCIH7B_gr13"><stop offset="0" stop-color="#84e1fe"></stop><stop offset="1" stop-color="#167cf7"></stop></linearGradient><linearGradient x1="-8.81597" y1="64.83627" x2="137.8029" y2="211.45514" gradientUnits="userSpaceOnUse" id="color-14_xCLiCEaCIH7B_gr14"><stop offset="0" stop-color="#84e1fe"></stop><stop offset="1" stop-color="#167cf7"></stop></linearGradient><linearGradient x1="65.63684" y1="-9.61654" x2="212.25571" y2="137.00233" gradientUnits="userSpaceOnUse" id="color-15_xCLiCEaCIH7B_gr15"><stop offset="0" stop-color="#84e1fe"></stop><stop offset="1" stop-color="#167cf7"></stop></linearGradient><linearGradient x1="65.63684" y1="-9.61654" x2="212.25571" y2="137.00233" gradientUnits="userSpaceOnUse" id="color-16_xCLiCEaCIH7B_gr16"><stop offset="0" stop-color="#84e1fe"></stop><stop offset="1" stop-color="#167cf7"></stop></linearGradient><linearGradient x1="39.63686" y1="16.38344" x2="186.25573" y2="162.99821" gradientUnits="userSpaceOnUse" id="color-17_xCLiCEaCIH7B_gr17"><stop offset="0" stop-color="#84e1fe"></stop><stop offset="1" stop-color="#167cf7"></stop></linearGradient><linearGradient x1="52.51984" y1="3.50046" x2="199.13871" y2="150.11933" gradientUnits="userSpaceOnUse" id="color-18_xCLiCEaCIH7B_gr18"><stop offset="0" stop-color="#84e1fe"></stop><stop offset="1" stop-color="#167cf7"></stop></linearGradient><linearGradient x1="21.85193" y1="34.16836" x2="168.47081" y2="180.78723" gradientUnits="userSpaceOnUse" id="color-19_xCLiCEaCIH7B_gr19"><stop offset="0" stop-color="#84e1fe"></stop><stop offset="1" stop-color="#167cf7"></stop></linearGradient><linearGradient x1="7.92205" y1="48.09824" x2="154.54503" y2="194.71301" gradientUnits="userSpaceOnUse" id="color-20_xCLiCEaCIH7B_gr20"><stop offset="0" stop-color="#84e1fe"></stop><stop offset="1" stop-color="#167cf7"></stop></linearGradient></defs><g transform=""><g fill="none" fill-rule="nonzero" stroke="none" stroke-width="1" stroke-linecap="butt" stroke-linejoin="miter" stroke-miterlimit="10" stroke-dasharray="" stroke-dashoffset="0" font-family="none" font-weight="none" font-size="none" text-anchor="none" style="mix-blend-mode: normal"><path d="M0,172v-172h172v172z" fill="none"></path><path d="M86,86.86c-0.47496,0 -0.86,-0.38504 -0.86,-0.86v0c0,-0.47496 0.38504,-0.86 0.86,-0.86v0c0.47496,0 0.86,0.38504 0.86,0.86v0c0,0.47496 -0.38504,0.86 -0.86,0.86z" fill="#cccccc"></path><g><rect x="19.94763" y="-0.05237" transform="scale(4.10548,4.10548)" width="2" height="6" fill="url(#color-1_xCLiCEaCIH7B_gr1)"></rect><path d="M73.68357,3.89048v0c0,-2.26622 1.83925,-4.10548 4.10548,-4.10548h16.4219c2.26622,0 4.10548,1.83925 4.10548,4.10548v0c0,2.26622 -1.83925,4.10548 -4.10548,4.10548h-16.4219c-2.26622,0 -4.10548,-1.83925 -4.10548,-4.10548z" fill="url(#color-2_xCLiCEaCIH7B_gr2)"></path><path d="M158.05111,81.97663c-2.5454,-11.37217 -7.7183,-21.75902 -14.86182,-30.46263c-3.12016,-3.77704 -6.60982,-7.26669 -10.38685,-10.38685c-8.70361,-7.14353 -19.09046,-12.31643 -30.46263,-14.86182c-5.25501,-1.23164 -10.71529,-1.84746 -16.3398,-1.84746c-5.6245,0 -11.08479,0.61582 -16.3398,1.84746c-11.37217,2.5454 -21.75902,7.7183 -30.46263,14.86182c-3.77704,3.12016 -7.26669,6.60982 -10.38685,10.38685c-7.14353,8.70361 -12.31643,19.09046 -14.86182,30.46263c-1.23164,5.25501 -1.84746,10.71529 -1.84746,16.3398c0,5.6245 0.61582,11.08479 1.84746,16.3398c2.5454,11.37217 7.7183,21.75902 14.86182,30.46263c3.12016,3.77704 6.60982,7.26669 10.38685,10.38685c8.70361,7.14353 19.09046,12.31643 30.46263,14.86182c5.25501,1.23164 10.71529,1.84746 16.3398,1.84746c5.6245,0 11.08479,-0.61582 16.3398,-1.84746c11.37217,-2.5454 21.75902,-7.7183 30.46263,-14.86182c3.77704,-3.12016 7.26669,-6.60982 10.38685,-10.38685c7.14353,-8.70361 12.31643,-19.09046 14.86182,-30.46263c1.23164,-5.25501 1.84746,-10.71529 1.84746,-16.3398c0,-5.6245 -0.61582,-11.08479 -1.84746,-16.3398z" fill="url(#color-3_xCLiCEaCIH7B_gr3)"></path><path d="M37.30905,147.00738c0.57477,2.87383 1.19059,5.70661 1.88852,8.49834c-3.77704,-3.12016 -7.26669,-6.60982 -10.38685,-10.38685c2.79172,0.69793 5.6245,1.31375 8.49834,1.88852z" fill="#0078d4"></path><path d="M134.69095,147.00738c2.87383,-0.57477 5.70661,-1.19059 8.49834,-1.88852c-3.12016,3.77704 -6.60982,7.26669 -10.38685,10.38685c0.69793,-2.79172 1.31375,-5.6245 1.88852,-8.49834z" fill="#0078d4"></path><path d="M132.80243,41.12715c3.77704,3.12016 7.26669,6.60982 10.38685,10.38685c-2.79172,-0.69793 -5.6245,-1.31375 -8.49834,-1.88852c-0.57477,-2.87383 -1.19059,-5.70661 -1.88852,-8.49834z" fill="#0078d4"></path><path d="M39.19757,41.12715c-0.69793,2.79172 -1.31375,5.6245 -1.88852,8.49834c-2.87383,0.57477 -5.70661,1.19059 -8.49834,1.88852c3.12016,-3.77704 6.60982,-7.26669 10.38685,-10.38685z" fill="#0078d4"></path><path d="M67.56641,151.03074c0.61582,6.85615 1.2727,13.30174 2.09379,19.33679c-11.37217,-2.5454 -21.75902,-7.7183 -30.46263,-14.86182c-0.69793,-2.79172 -1.31375,-5.6245 -1.88852,-8.49834c9.48365,1.92957 19.66523,3.28438 30.25736,4.02337z" fill="url(#color-4_xCLiCEaCIH7B_gr4)"></path><path d="M104.43359,151.03074c-0.61582,6.85615 -1.2727,13.30174 -2.09379,19.33679c-5.25501,1.23164 -10.71529,1.84746 -16.3398,1.84746c-5.6245,0 -11.08479,-0.61582 -16.3398,-1.84746c-0.8211,-6.03505 -1.47797,-12.48065 -2.09379,-19.33679c5.994,0.4516 12.15221,0.65688 18.43359,0.65688c6.28138,0 12.43959,-0.20527 18.43359,-0.65688z" fill="url(#color-5_xCLiCEaCIH7B_gr5)"></path><path d="M134.69095,147.00738c-0.57477,2.87383 -1.19059,5.70661 -1.88852,8.49834c-8.70361,7.14353 -19.09046,12.31643 -30.46263,14.86182c0.8211,-6.03505 1.47797,-12.48065 2.09379,-19.33679c10.59213,-0.73899 20.77371,-2.09379 30.25736,-4.02337z" fill="url(#color-6_xCLiCEaCIH7B_gr6)"></path><path d="M158.05111,114.65622c-2.5454,11.37217 -7.7183,21.75902 -14.86182,30.46263c-2.79172,0.69793 -5.6245,1.31375 -8.49834,1.88852c1.92957,-9.48365 3.28438,-19.66523 4.02337,-30.25736c6.85615,-0.61582 13.30174,-1.2727 19.33679,-2.09379z" fill="url(#color-7_xCLiCEaCIH7B_gr7)"></path><path d="M138.71431,116.75002c-0.73899,10.59213 -2.09379,20.77371 -4.02337,30.25736c-9.48365,1.92957 -19.66523,3.28438 -30.25736,4.02337c0.8211,-10.09947 1.47797,-21.02004 1.80641,-32.47432c11.45428,-0.32844 22.37485,-0.98531 32.47432,-1.80641z" fill="url(#color-8_xCLiCEaCIH7B_gr8)"></path><path d="M106.24,118.55643c-0.32844,11.45428 -0.98531,22.37485 -1.80641,32.47432c-5.994,0.4516 -12.15221,0.65688 -18.43359,0.65688c-6.28138,0 -12.43959,-0.20527 -18.43359,-0.65688c-0.8211,-10.09947 -1.47797,-21.02004 -1.80641,-32.47432c6.56876,0.20527 13.3428,0.28738 20.24,0.28738c6.8972,0 13.67124,-0.08211 20.24,-0.28738z" fill="#0078d4"></path><path d="M65.76,118.55643c0.32844,11.45428 0.98531,22.37485 1.80641,32.47432c-10.59213,-0.73899 -20.77371,-2.09379 -30.25736,-4.02337c-1.92957,-9.48365 -3.28438,-19.66523 -4.02337,-30.25736c10.09947,0.8211 21.02004,1.47797 32.47432,1.80641z" fill="url(#color-9_xCLiCEaCIH7B_gr9)"></path><path d="M33.28569,116.75002c0.73899,10.59213 2.09379,20.77371 4.02337,30.25736c-2.87383,-0.57477 -5.70661,-1.19059 -8.49834,-1.88852c-7.14353,-8.70361 -12.31643,-19.09046 -14.86182,-30.46263c6.03505,0.8211 12.48065,1.47797 19.33679,2.09379z" fill="url(#color-10_xCLiCEaCIH7B_gr10)"></path><path d="M158.05111,81.97663c1.23164,5.25501 1.84746,10.71529 1.84746,16.3398c0,5.6245 -0.61582,11.08479 -1.84746,16.3398c-6.03505,0.8211 -12.48065,1.47797 -19.33679,2.09379c0.4516,-5.994 0.65688,-12.15221 0.65688,-18.43359c0,-6.28138 -0.20527,-12.43959 -0.65688,-18.43359c6.85615,0.61582 13.30174,1.2727 19.33679,2.09379z" fill="url(#color-11_xCLiCEaCIH7B_gr11)"></path><path d="M138.71431,79.88284c0.4516,5.994 0.65688,12.15221 0.65688,18.43359c0,6.28138 -0.20527,12.43959 -0.65688,18.43359c-10.09947,0.8211 -21.02004,1.47797 -32.47432,1.80641c0.20527,-6.56876 0.28738,-13.3428 0.28738,-20.24c0,-6.8972 -0.08211,-13.67124 -0.28738,-20.24c11.45428,0.32844 22.37485,0.98531 32.47432,1.80641z" fill="url(#color-12_xCLiCEaCIH7B_gr12)"></path><path d="M106.24,78.07643c0.20527,6.56876 0.28738,13.3428 0.28738,20.24c0,6.8972 -0.08211,13.67124 -0.28738,20.24c-6.56876,0.20527 -13.3428,0.28738 -20.24,0.28738c-6.8972,0 -13.67124,-0.08211 -20.24,-0.28738c-0.20527,-6.56876 -0.28738,-13.3428 -0.28738,-20.24c0,-6.8972 0.08211,-13.67124 0.28738,-20.24c6.56876,-0.20527 13.3428,-0.28738 20.24,-0.28738c6.8972,0 13.67124,0.08211 20.24,0.28738z" fill="url(#color-13_xCLiCEaCIH7B_gr13)"></path><path d="M65.76,78.07643c-0.20527,6.56876 -0.28738,13.3428 -0.28738,20.24c0,6.8972 0.08211,13.67124 0.28738,20.24c-11.45428,-0.32844 -22.37485,-0.98531 -32.47432,-1.80641c-0.4516,-5.994 -0.65688,-12.15221 -0.65688,-18.43359c0,-6.28138 0.20527,-12.43959 0.65688,-18.43359c10.09947,-0.8211 21.02004,-1.47797 32.47432,-1.80641z" fill="#0078d4"></path><path d="M33.28569,116.75002c-6.85615,-0.61582 -13.30174,-1.2727 -19.33679,-2.09379c-1.23164,-5.25501 -1.84746,-10.71529 -1.84746,-16.3398c0,-5.6245 0.61582,-11.08479 1.84746,-16.3398c6.03505,-0.8211 12.48065,-1.47797 19.33679,-2.09379c-0.4516,5.994 -0.65688,12.15221 -0.65688,18.43359c0,6.28138 0.20527,12.43959 0.65688,18.43359z" fill="url(#color-14_xCLiCEaCIH7B_gr14)"></path><path d="M143.18928,51.514c7.14353,8.70361 12.31643,19.09046 14.86182,30.46263c-6.03505,-0.8211 -12.48065,-1.47797 -19.33679,-2.09379c-0.73899,-10.59213 -2.09379,-20.77371 -4.02337,-30.25736c2.87383,0.57477 5.70661,1.19059 8.49834,1.88852z" fill="url(#color-15_xCLiCEaCIH7B_gr15)"></path><path d="M104.43359,45.60211c10.59213,0.73899 20.77371,2.09379 30.25736,4.02337c1.92957,9.48365 3.28438,19.66523 4.02337,30.25736c-10.09947,-0.8211 -21.02004,-1.47797 -32.47432,-1.80641c-0.32844,-11.45428 -0.98531,-22.37485 -1.80641,-32.47432z" fill="#0078d4"></path><path d="M102.3398,26.26532c11.37217,2.5454 21.75902,7.7183 30.46263,14.86182c0.69793,2.79172 1.31375,5.6245 1.88852,8.49834c-9.48365,-1.92957 -19.66523,-3.28438 -30.25736,-4.02337c-0.61582,-6.85615 -1.2727,-13.30174 -2.09379,-19.33679z" fill="url(#color-16_xCLiCEaCIH7B_gr16)"></path><path d="M104.43359,45.60211c0.8211,10.09947 1.47797,21.02004 1.80641,32.47432c-6.56876,-0.20527 -13.3428,-0.28738 -20.24,-0.28738c-6.8972,0 -13.67124,0.08211 -20.24,0.28738c0.32844,-11.45428 0.98531,-22.37485 1.80641,-32.47432c5.994,-0.4516 12.15221,-0.65688 18.43359,-0.65688c6.28138,0 12.43959,0.20527 18.43359,0.65688z" fill="url(#color-17_xCLiCEaCIH7B_gr17)"></path><path d="M102.3398,26.26532c0.8211,6.03505 1.47797,12.48065 2.09379,19.33679c-5.994,-0.4516 -12.15221,-0.65688 -18.43359,-0.65688c-6.28138,0 -12.43959,0.20527 -18.43359,0.65688c0.61582,-6.85615 1.2727,-13.30174 2.09379,-19.33679c5.25501,-1.23164 10.71529,-1.84746 16.3398,-1.84746c5.6245,0 11.08479,0.61582 16.3398,1.84746z" fill="url(#color-18_xCLiCEaCIH7B_gr18)"></path><path d="M67.56641,45.60211c-0.8211,10.09947 -1.47797,21.02004 -1.80641,32.47432c-11.45428,0.32844 -22.37485,0.98531 -32.47432,1.80641c0.73899,-10.59213 2.09379,-20.77371 4.02337,-30.25736c9.48365,-1.92957 19.66523,-3.28438 30.25736,-4.02337z" fill="url(#color-19_xCLiCEaCIH7B_gr19)"></path><path d="M69.6602,26.26532c-0.8211,6.03505 -1.47797,12.48065 -2.09379,19.33679c-10.59213,0.73899 -20.77371,2.09379 -30.25736,4.02337c0.57477,-2.87383 1.19059,-5.70661 1.88852,-8.49834c8.70361,-7.14353 19.09046,-12.31643 30.46263,-14.86182z" fill="#0078d4"></path><path d="M37.30905,49.62548c-1.92957,9.48365 -3.28438,19.66523 -4.02337,30.25736c-6.85615,0.61582 -13.30174,1.2727 -19.33679,2.09379c2.5454,-11.37217 7.7183,-21.75902 14.86182,-30.46263c2.79172,-0.69793 5.6245,-1.31375 8.49834,-1.88852z" fill="url(#color-20_xCLiCEaCIH7B_gr20)"></path><path d="M140.89022,114.492c0.32844,-5.13185 0.53371,-10.55107 0.53371,-16.17558c0,-5.6245 -0.20527,-11.04373 -0.53371,-16.17558c6.81509,0.65688 12.15221,1.23164 16.83245,1.84746l0.78004,0.12316c-0.24633,-1.43692 -0.57477,-2.87383 -0.94426,-4.2697c-4.7213,-0.65688 -10.09947,-1.23164 -16.95562,-1.84746c-0.65688,-8.90888 -1.80641,-17.53038 -3.32544,-25.70028c1.80641,0.41055 3.65387,0.78004 5.50134,1.23164l2.38118,0.49266c-1.35481,-1.76535 -2.75067,-3.48965 -4.2697,-5.13185c-1.47797,-0.36949 -2.997,-0.69793 -4.47497,-0.98531c-0.28738,-1.47797 -0.61582,-2.95594 -0.94426,-4.47497c-1.7243,-1.56008 -3.53071,-3.03805 -5.41923,-4.43391l0.78004,2.6275c0.41055,1.76535 0.78004,3.61282 1.19059,5.41923c-8.1699,-1.51903 -16.7914,-2.66856 -25.70028,-3.32544c-0.61582,-6.85615 -1.19059,-12.23432 -1.84746,-16.95562c-1.43692,-0.36949 -2.87383,-0.69793 -4.31075,-0.94426l0.12316,0.73899c0.65688,4.7213 1.23164,10.05842 1.88852,16.87351c-10.3458,-0.65688 -22.00535,-0.65688 -32.35115,0c0.65688,-6.81509 1.23164,-12.15221 1.88852,-16.87351l0.12316,-0.73899c-1.43692,0.24633 -2.87383,0.57477 -4.31075,0.94426c-0.65688,4.7213 -1.23164,10.09947 -1.84746,16.95562c-8.95815,0.65688 -17.51807,1.83925 -25.70849,3.38291c0.39823,-1.85978 0.78004,-3.71546 1.23985,-5.59987l0.36949,-2.1759c-1.76535,1.2727 -3.4486,2.66856 -5.04974,4.18759c-0.34897,1.45334 -0.64867,2.91489 -0.94836,4.38465c-1.50671,0.2997 -3.01342,0.6035 -4.47086,0.95247c-1.51903,1.64219 -2.91489,3.36649 -4.22864,5.1729l2.42223,-0.53371c1.77357,-0.42286 3.60871,-0.80057 5.42744,-1.19059c-1.52724,8.16169 -2.66856,16.79961 -3.35007,25.70028c-6.82741,0.63224 -12.18095,1.20701 -16.93919,1.84746c-0.36949,1.43692 -0.69793,2.87383 -0.94426,4.31075l0.73899,-0.12316c4.70898,-0.66098 10.06252,-1.26038 16.86119,-1.8762c-0.33254,5.13595 -0.5214,10.51412 -0.5214,16.16326c0,5.66145 0.18885,11.04373 0.5255,16.16326c-6.81509,-0.61582 -12.16042,-1.21112 -16.82424,-1.83515l-0.78004,-0.12316c0.24633,1.43692 0.57477,2.87383 0.94426,4.2697c4.7254,0.64045 10.07894,1.21933 16.9433,1.85157c0.68151,8.91709 1.82283,17.5427 3.34596,25.69207c-1.84336,-0.39413 -3.68261,-0.77183 -5.5506,-1.22754l-2.25801,-0.4516c1.2727,1.76535 2.66856,3.4486 4.18759,5.09079c1.45744,0.38181 2.96415,0.68151 4.47086,0.98121c0.2997,1.48208 0.5994,2.97236 0.94836,4.39696c1.64219,1.56008 3.32544,2.95594 5.09079,4.22864l-0.4516,-2.34012c-0.42697,-1.78999 -0.80878,-3.64156 -1.2029,-5.47671c8.19864,1.53955 16.78729,2.72604 25.7126,3.38291c0.61582,6.81509 1.19059,12.15221 1.84746,16.95562c1.43692,0.36949 2.87383,0.69793 4.3518,0.94426l-0.16422,-0.73899c-0.65688,-4.7213 -1.23164,-10.05842 -1.88852,-16.87351c5.13185,0.32844 10.55107,0.53371 16.17558,0.53371c5.6245,0 11.04373,-0.20527 16.17558,-0.53371c-0.65688,6.81509 -1.23164,12.15221 -1.84746,16.75034l-0.16422,0.86215c1.43692,-0.24633 2.87383,-0.57477 4.31075,-0.94426c0.65688,-4.7213 1.23164,-10.09947 1.84746,-16.95562c8.90888,-0.65688 17.53038,-1.80641 25.70028,-3.32544c-0.41055,1.84746 -0.78004,3.65387 -1.23164,5.54239l-0.4516,2.25801c1.76535,-1.2727 3.4486,-2.66856 5.09079,-4.18759c0.36949,-1.47797 0.69793,-2.95594 0.98531,-4.47497c1.47797,-0.28738 2.997,-0.61582 4.47497,-0.98531c1.51903,-1.60114 2.87383,-3.28438 4.18759,-5.04974l-2.38118,0.4516c-1.76535,0.41055 -3.61282,0.78004 -5.41923,1.19059c1.51903,-8.1699 2.66856,-16.7914 3.32544,-25.70028c6.81509,-0.61582 12.19326,-1.19059 16.95562,-1.84746c0.36949,-1.43692 0.69793,-2.87383 0.94426,-4.31075l-0.73899,0.12316c-4.7213,0.65688 -10.05842,1.23164 -16.87351,1.88852zM34.68155,98.31643c0,-5.75588 0.19296,-11.26543 0.55424,-16.50401c9.64787,-0.7472 19.189,-1.29322 28.43042,-1.60114c-0.16422,5.58345 -0.24633,11.53639 -0.24633,18.10515c0,6.56876 0.08211,12.5217 0.24633,18.10515c-9.24964,-0.30791 -18.79898,-0.85804 -28.42632,-1.60524c-0.36539,-5.21806 -0.55834,-10.73171 -0.55834,-16.49991zM39.0662,145.22149c-1.63809,-8.29306 -2.79993,-17.10752 -3.5266,-26.25452c9.5945,0.7472 19.08636,1.25628 28.24978,1.56008c0.28738,9.15521 0.8211,18.63886 1.56008,28.24568c-9.16753,-0.70204 -17.96146,-1.91726 -26.28326,-3.55124zM63.78937,76.1058c-9.16342,0.30381 -18.65528,0.83752 -28.25389,1.56008c0.72256,-9.13058 1.88852,-17.95325 3.5266,-26.25863c8.3218,-1.62987 17.11984,-2.8492 26.28326,-3.55124c-0.73488,9.61092 -1.26859,19.05352 -1.55598,28.24978zM69.49599,47.57274c10.46896,-0.73899 22.49801,-0.73899 33.00803,0c0.78004,9.64787 1.31375,19.17257 1.60114,28.4099c-5.58345,-0.16422 -11.53639,-0.24633 -18.10515,-0.24633c-6.56876,0 -12.5217,0.08211 -18.10515,0.24633c0.28738,-9.23732 0.8211,-18.76203 1.60114,-28.4099zM102.50401,149.06011c-10.46896,0.73899 -22.49801,0.73899 -33.00803,0c-0.78004,-9.64787 -1.31375,-19.17257 -1.60114,-28.4099c5.58345,0.16422 11.53639,0.24633 18.10515,0.24633c6.56876,0 12.5217,-0.08211 18.10515,-0.24633c-0.32844,9.23732 -0.8211,18.80308 -1.60114,28.4099zM104.22831,116.54474c-5.6245,0.16422 -11.57744,0.24633 -18.22831,0.24633c-6.65087,0 -12.60381,-0.08211 -18.22831,-0.24633c-0.16422,-5.6245 -0.24633,-11.57744 -0.24633,-18.22831c0,-6.65087 0.08211,-12.60381 0.24633,-18.22831c5.6245,-0.16422 11.57744,-0.24633 18.22831,-0.24633c6.65087,0 12.60381,0.08211 18.22831,0.24633c0.16422,5.6245 0.24633,11.57744 0.24633,18.22831c0,6.65087 -0.08211,12.60381 -0.24633,18.22831zM132.92559,51.39084c1.64219,8.29306 2.83278,17.11984 3.53071,26.27505c-9.60681,-0.73899 -19.04941,-1.2727 -28.24568,-1.56008c-0.28738,-9.15521 -0.8211,-18.63886 -1.56008,-28.24568c9.15521,0.69793 17.98199,1.88852 26.27505,3.53071zM132.92559,145.24202c-8.29306,1.64219 -17.11984,2.83278 -26.27505,3.53071c0.73899,-9.60681 1.2727,-19.04941 1.56008,-28.24568c9.15521,-0.28738 18.63886,-0.8211 28.24568,-1.56008c-0.69793,9.15521 -1.88852,17.98199 -3.53071,26.27505zM136.74369,114.82044c-9.64787,0.78004 -19.17257,1.31375 -28.4099,1.60114c0.16422,-5.58345 0.24633,-11.53639 0.24633,-18.10515c0,-6.56876 -0.08211,-12.5217 -0.24633,-18.10515c9.23732,0.32844 18.80308,0.8211 28.4099,1.60114c0.36949,5.21395 0.57477,10.71529 0.57477,16.50401c0,5.74767 -0.20527,11.29006 -0.57477,16.50401z" fill="#0078d4"></path><g fill="#f9f9f9"><path d="M46.92408,54.5849l4.28201,12.84193l12.84193,4.28201c1.90084,0.63224 1.90084,3.32544 0,3.95768l-12.84193,4.28201l-4.28201,12.84193c-0.63224,1.90084 -3.32544,1.90084 -3.95768,0l-4.28201,-12.84193l-12.84193,-4.28201c-1.90084,-0.63224 -1.90084,-3.32544 0,-3.95768l12.84193,-4.28201l4.28201,-12.84193c0.63224,-1.90494 3.32544,-1.90494 3.95768,0z"></path><path d="M132.34672,62.22519l2.57003,7.70187l7.70187,2.57003c1.14132,0.38181 1.14132,1.99526 0,2.37707l-7.70187,2.57003l-2.57003,7.70187c-0.38181,1.14132 -1.99526,1.14132 -2.37707,0l-2.57003,-7.70187l-7.70187,-2.57003c-1.14132,-0.38181 -1.14132,-1.99526 0,-2.37707l7.70187,-2.57003l2.57003,-7.70187c0.39002,-1.14543 2.00347,-1.14543 2.37707,0z"></path><path d="M105.46406,103.13626l2.14306,6.41686l6.41686,2.14306c0.95247,0.31612 0.95247,1.66272 0,1.97884l-6.41686,2.14306l-2.14306,6.41686c-0.32023,0.95247 -1.66272,0.95247 -1.98295,0l-2.14306,-6.41686l-6.41686,-2.14306c-0.95247,-0.31612 -0.95247,-1.66272 0,-1.98295l6.41686,-2.14306l2.14306,-6.41686c0.32433,-0.94836 1.67093,-0.94836 1.98295,0.00411z"></path></g></g><path d="" fill="none"></path><path d="" fill="none"></path></g></g></svg>